<?xml version="1.0" encoding="UTF-8" standalone="no"?>
<!-- Generator: Adobe Illustrator 27.5.0, SVG Export Plug-In . SVG Version: 6.00 Build 0)  -->

<svg
   version="1.1"
   x="0px"
   y="0px"
   viewBox="0 0 694.99997 500"
   xml:space="preserve"
   id="svg94"
   sodipodi:docname="7769466_3748832.svg"
   width="695"
   height="500"
   xmlns:inkscape="http://www.inkscape.org/namespaces/inkscape"
   xmlns:sodipodi="http://sodipodi.sourceforge.net/DTD/sodipodi-0.dtd"
   xmlns:xlink="http://www.w3.org/1999/xlink"
   xmlns="http://www.w3.org/2000/svg"
   xmlns:svg="http://www.w3.org/2000/svg"><defs
   id="defs94" /><sodipodi:namedview
   id="namedview94"
   pagecolor="#ffffff"
   bordercolor="#000000"
   borderopacity="0.25"
   inkscape:showpageshadow="2"
   inkscape:pageopacity="0.0"
   inkscape:pagecheckerboard="0"
   inkscape:deskcolor="#d1d1d1" />

<g
   id="OBJECTS"
   transform="translate(98.424043,-12.978386)">
	<g
   id="g94">
		<g
   id="g88">
			<defs
   id="defs1"><path
     id="SVGID_1_"
     d="M 428.813,59.124 H 196.68 81.778 c -9.587,0 -17.359,7.772 -17.359,17.358 v 45.771 c -26.569,-0.702 -30.065,194.319 0,174.986 v 126.279 c 0,9.587 7.772,17.359 17.359,17.359 H 196.68 428.813 c 9.587,0 17.359,-7.772 17.359,-17.359 V 387.84 c 19.987,-64.812 23.3,-105.775 0,-108.673 V 76.482 c 0,-9.587 -7.772,-17.358 -17.359,-17.358 z" /></defs>
			<clipPath
   id="SVGID_00000138560752529099851370000014532664930134709635_">
				<use
   xlink:href="#SVGID_1_"
   style="overflow:visible"
   id="use1" />
			</clipPath>
			<g
   clip-path="url(#SVGID_00000138560752529099851370000014532664930134709635_)"
   id="g3">
				<path
   style="fill:#efe9b4"
   d="M 428.813,59.124 H 196.68 v 381.753 h 232.133 c 9.587,0 17.359,-7.772 17.359,-17.359 V 76.482 c 0,-9.587 -7.772,-17.358 -17.359,-17.358 z"
   id="path1" />
				<polygon
   style="fill:#e9d788"
   points="384.608,78.605 291.742,78.605 291.742,169.259 378.712,186.868 "
   id="polygon1" />
				<polygon
   style="fill:#e9d788"
   points="384.608,78.605 291.742,78.605 291.742,169.259 378.712,186.868 "
   id="polygon2" />
				<polygon
   style="fill:#efe9b4"
   points="368.17,97.768 308.18,97.768 308.18,156.33 364.361,167.705 "
   id="polygon3" />
				<path
   style="fill:#e9d788"
   d="m 81.778,59.124 c -9.587,0 -17.359,7.772 -17.359,17.358 v 347.036 c 0,9.587 7.772,17.359 17.359,17.359 H 196.68 V 59.124 Z"
   id="path3" />
			</g>
			<g
   clip-path="url(#SVGID_00000138560752529099851370000014532664930134709635_)"
   id="g7">
				<path
   style="fill:#7d95b8"
   d="m 211.813,398.714 c -28.622,11.658 -43.3,50.555 -43.3,50.555 l 199.008,-1.861 c 0,-0.001 -127.086,-60.353 -155.708,-48.694 z"
   id="path4" />
				<path
   style="fill:#93b0d9"
   d="m 170.122,420.305 c -28.622,11.658 -43.3,50.555 -43.3,50.555 l 189.953,-13.21 c 0,0 -118.031,-49.003 -146.653,-37.345 z"
   id="path5" />
				<path
   style="fill:#94511f"
   d="m 89.005,370.375 -45.843,35.23 c 0,0 -11.586,15.443 -4.83,29.921 6.756,14.478 6.756,14.478 6.756,14.478 l 68.53,1.448 171.324,-83.008 5.309,-55.982 z"
   id="path6" />
				<polygon
   style="fill:#cf722c"
   points="118.135,360.893 51.003,420.305 51.003,431.046 339,300.139 339,290.74 "
   id="polygon6" />
				<polygon
   style="fill:#ea8132"
   points="339,290.74 196.68,256.503 51.003,303.664 51.003,420.305 "
   id="polygon7" />
			</g>
			<g
   clip-path="url(#SVGID_00000138560752529099851370000014532664930134709635_)"
   id="g8">
				<path
   style="fill:#301c13"
   d="m 160.06,286.763 c 0.204,1.723 -0.397,3.59 -1.65,4.923 -1.23,1.355 -3.07,2.15 -4.923,2.15 -1.853,0 -3.694,-0.794 -4.924,-2.149 -1.255,-1.333 -1.854,-3.201 -1.649,-4.925 0.194,1.725 1.009,3.276 2.201,4.373 1.199,1.092 2.778,1.713 4.373,1.702 1.595,0.012 3.174,-0.609 4.374,-1.701 1.192,-1.096 2.006,-2.649 2.198,-4.373 z"
   id="path7" />
			</g>
			<g
   clip-path="url(#SVGID_00000138560752529099851370000014532664930134709635_)"
   id="g12">
				<g
   id="g9">
					
						<ellipse
   transform="matrix(0.9797,-0.2005,0.2005,0.9797,-54.5025,37.3072)"
   style="fill:#301c13"
   cx="156.97501"
   cy="287.793"
   rx="47.424"
   ry="14.215"
   id="ellipse8" />
					<path
   style="fill:#301c13"
   d="m 154.57,291.26 c -4.848,0 -8.777,-3.93 -8.777,-8.778 v -29.925 c 0,-4.848 3.929,-8.778 8.777,-8.778 4.848,0 8.777,3.93 8.777,8.778 v 29.925 c 0,4.848 -3.929,8.778 -8.777,8.778 z"
   id="path8" />
					<path
   style="fill:#301c13"
   d="m 154.57,291.26 c -4.848,0 -8.777,-3.93 -8.777,-8.778 v -6.674 -23.251 c 0,-4.848 3.929,-8.778 8.777,-8.778 4.848,0 8.777,3.93 8.777,8.778 v 19.706 10.219 c 0,4.848 -3.929,8.778 -8.777,8.778 z"
   id="path9" />
				</g>
				<g
   id="g11">
					<path
   style="fill:#6e402b"
   d="m 237.414,106.101 c 0,0 -181.048,23.781 -182.357,26.073 -0.812,1.421 -0.327,157.803 0,159.112 0.327,1.31 5.513,2.996 5.513,2.996 L 245.9,106.101 c 0,-1.846 -8.486,0 -8.486,0 z"
   id="path10" />
					<polygon
   style="fill:#301c13"
   points="245.9,106.101 60.569,133.473 60.569,294.283 245.9,238.398 "
   id="polygon10" />
					<polygon
   style="fill:#ffffff"
   points="234.318,117.881 74.822,142.118 74.822,276.604 234.318,228.509 "
   id="polygon11" />
				</g>
			</g>
			<g
   clip-path="url(#SVGID_00000138560752529099851370000014532664930134709635_)"
   id="g13">
				<path
   style="fill:#301c13"
   d="m 160.06,279.109 c 0.19,2.792 0.339,5.512 0.347,8.363 -0.106,1.467 -0.713,2.904 -1.702,4.014 -0.976,1.127 -2.344,1.887 -3.8,2.208 -1.465,0.277 -3.018,0.113 -4.363,-0.534 -1.345,-0.635 -2.467,-1.718 -3.14,-3.024 -0.332,-0.656 -0.559,-1.359 -0.679,-2.076 -0.124,-0.723 -0.077,-1.452 -0.055,-2.133 0.083,-1.387 0.132,-2.775 0.245,-4.162 0.113,1.387 0.162,2.775 0.245,4.162 0.031,0.704 0.028,1.373 0.185,2.015 0.152,0.643 0.399,1.258 0.731,1.821 1.333,2.265 4.099,3.511 6.632,2.952 2.538,-0.484 4.61,-2.713 4.94,-5.32 0.11,-1.309 0.106,-2.753 0.171,-4.123 0.082,-1.388 0.131,-2.775 0.243,-4.163 z"
   id="path12" />
			</g>
			<g
   clip-path="url(#SVGID_00000138560752529099851370000014532664930134709635_)"
   id="g16">
				<path
   style="fill:#cf9e76"
   d="m 359.376,199.908 -48.733,-75.26 c -14.417,5.286 -21.626,31.064 -24.029,38.84 -1.805,5.841 -1.861,8.849 -3.257,11.34 1.622,9.374 -3.237,21.291 -6.303,23.335 0.873,2.909 -7.563,31.998 0,39.561 7.563,7.563 32.871,1.745 37.234,5.236 4.363,3.491 22.98,29.671 22.98,29.671 l 30.253,-10.763 z"
   id="path13" />
				<g
   id="g15">
					<g
   id="g14">
						<path
   style="fill:#301c13"
   d="m 336.429,221.944 c 2.641,16.731 -11.718,28.878 -20.336,41.248 -8.186,11.749 -12.02,26.057 -10.888,40.325 0.051,0.637 1.051,0.643 1,0 -1.286,-16.207 3.987,-31.347 13.902,-44.061 8.539,-10.949 19.668,-22.693 17.287,-37.778 -0.101,-0.634 -1.064,-0.365 -0.965,0.266 z"
   id="path14" />
					</g>
				</g>
				<path
   style="fill:#ffffff"
   d="m 371.752,253.272 c 0,0 -68.437,20.633 -84.959,42.328 -16.522,21.695 -18.466,69.884 -18.466,69.884 0,0 12.773,11.015 35.584,9.638 v 72.284 h 117.813 c 0,0 29.074,-178.137 17.211,-194.135 -11.863,-15.998 -67.183,0.001 -67.183,0.001 z"
   id="path15" />
				<path
   style="fill:#7d4921"
   d="m 283.357,174.828 c -0.462,0.825 -1.071,1.594 -1.94,2.391 -3.491,3.2 -13.09,8.727 -13.09,10.763 0,2.036 7.854,7.272 8.727,10.181 3.066,-2.044 7.925,-13.961 6.303,-23.335 z"
   id="path16" />
			</g>
			<g
   clip-path="url(#SVGID_00000138560752529099851370000014532664930134709635_)"
   id="g20">
				<path
   style="fill:#06181d"
   d="m 302.045,174.05 c -0.384,7.063 -3.228,12.651 -6.352,12.481 -3.124,-0.17 -4.826,-6.042 -4.442,-13.105 0.175,-3.217 1.232,-5.194 2.221,-7.395 -0.808,-3.546 1.91,-5.17 3.611,-5.077 3.125,0.17 5.346,6.033 4.962,13.096 z"
   id="path17" />
				<g
   id="g19">
					
						<ellipse
   transform="matrix(0.0543,-0.9985,0.9985,0.0543,104.5308,462.1959)"
   style="fill:#efefef"
   cx="296.26999"
   cy="175.91299"
   rx="12.807"
   ry="5.665"
   id="ellipse17" />
					<g
   id="g18">
						<defs
   id="defs17"><ellipse
     id="SVGID_00000046325653459171895450000007153235480979010957_"
     transform="matrix(0.0543,-0.9985,0.9985,0.0543,104.5308,462.1959)"
     cx="296.26999"
     cy="175.91299"
     rx="12.807"
     ry="5.665" /></defs>
						<clipPath
   id="SVGID_00000054226117568882740480000010790903038040882079_">
							<use
   xlink:href="#SVGID_00000046325653459171895450000007153235480979010957_"
   style="overflow:visible"
   id="use17" />
						</clipPath>
						
							<ellipse
   transform="matrix(0.0543,-0.9985,0.9985,0.0543,102.1096,459.3441)"
   style="fill:#06181d"
   cx="293.55399"
   cy="175.76601"
   rx="12.807"
   ry="5.665"
   clip-path="url(#SVGID_00000054226117568882740480000010790903038040882079_)"
   id="ellipse18" />
					</g>
				</g>
			</g>
			<path
   style="fill:#06181d"
   d="m 310.367,159.435 c 0,0 -5.933,-13.485 -11.147,-12.406 -5.214,1.079 -6.532,5.799 -7.552,5.034 -1.02,-0.765 2.517,-12.226 9.349,-10.248 6.833,1.978 10.608,16.182 9.35,17.62 z"
   clip-path="url(#SVGID_00000138560752529099851370000014532664930134709635_)"
   id="path20" />
			
				<circle
   style="fill:#dfb28b"
   cx="303.91101"
   cy="206.312"
   r="9.1829996"
   clip-path="url(#SVGID_00000138560752529099851370000014532664930134709635_)"
   id="circle20" />
			<g
   clip-path="url(#SVGID_00000138560752529099851370000014532664930134709635_)"
   id="g23">
				<defs
   id="defs20"><path
     id="SVGID_00000031917791993271260520000013992308143344152467_"
     d="m 359.376,199.908 -48.733,-75.26 c -14.417,5.286 -21.626,31.064 -24.029,38.84 -1.805,5.841 -1.861,8.849 -3.257,11.34 1.622,9.374 -3.237,21.291 -6.303,23.335 0.873,2.909 -7.563,31.998 0,39.561 7.563,7.563 32.871,1.745 37.234,5.236 4.363,3.491 22.98,29.671 22.98,29.671 l 30.253,-10.763 z" /></defs>
				<clipPath
   id="SVGID_00000120543620209643657610000011832060477221344391_">
					<use
   xlink:href="#SVGID_00000031917791993271260520000013992308143344152467_"
   style="overflow:visible"
   id="use20" />
				</clipPath>
				<g
   clip-path="url(#SVGID_00000120543620209643657610000011832060477221344391_)"
   id="g22">
					<g
   id="g21">
						<path
   d="m 272.376,221.149 c 5.178,-2.865 10.144,-6.058 14.899,-9.581 1.023,-0.758 0.027,-2.494 -1.009,-1.727 -4.755,3.523 -9.721,6.716 -14.899,9.581 -1.126,0.623 -0.119,2.351 1.009,1.727 z"
   id="path21" />
					</g>
				</g>
			</g>
			<path
   style="fill:#df400a"
   d="m 385.3,128.389 c -11.982,-7.814 -56.262,-53.136 -79.183,-26.568 -22.921,26.568 4.49,48.689 4.49,48.689 0,0 -3.558,28.452 2.488,35.985 6.046,7.533 31.051,-8.616 37.302,5.97 6.251,14.586 -14.871,22.4 -9.259,38.029 5.612,15.629 22.823,11.384 25.678,26.009 2.855,14.625 7.023,54.715 44.531,39.098 37.508,-15.617 18.233,-34.892 15.628,-43.227 -2.605,-8.335 1.042,-10.94 0,-21.359 -1.042,-10.419 -13.024,-14.503 -13.544,-24.703 -0.521,-10.2 12.503,-35.79 3.126,-51.647 C 407.18,138.808 385.3,128.389 385.3,128.389 Z"
   clip-path="url(#SVGID_00000138560752529099851370000014532664930134709635_)"
   id="path23" />
			<path
   style="fill:#df400a"
   d="m 385.3,128.389 c -11.982,-7.814 -56.262,-53.136 -79.183,-26.568 -22.921,26.568 4.49,48.689 4.49,48.689 0,0 -3.558,28.452 2.488,35.985 6.046,7.533 31.051,-8.616 37.302,5.97 6.251,14.586 -14.871,22.4 -9.259,38.029 5.612,15.629 22.823,11.384 25.678,26.009 2.855,14.625 7.023,54.715 44.531,39.098 37.508,-15.617 18.233,-34.892 15.628,-43.227 -2.605,-8.335 1.042,-10.94 0,-21.359 -1.042,-10.419 -13.024,-14.503 -13.544,-24.703 -0.521,-10.2 12.503,-35.79 3.126,-51.647 C 407.18,138.808 385.3,128.389 385.3,128.389 Z"
   clip-path="url(#SVGID_00000138560752529099851370000014532664930134709635_)"
   id="path24" />
			<path
   style="opacity:0.5;fill:#df400a"
   d="m 385.3,138.346 c 0,0 21.88,10.419 31.256,26.276 1.718,2.905 2.678,6.138 3.113,9.541 0,-0.001 0,-0.001 0,-0.002 0.044,-0.432 0.084,-0.864 0.119,-1.295 10e-4,-0.013 0.002,-0.025 0.003,-0.038 0.066,-0.824 0.112,-1.646 0.138,-2.463 0.001,-0.043 0.004,-0.086 0.005,-0.129 0.01,-0.349 0.014,-0.698 0.017,-1.046 10e-4,-0.171 10e-4,-0.342 0,-0.513 -0.002,-0.324 -0.004,-0.648 -0.013,-0.97 -0.01,-0.326 -0.026,-0.651 -0.044,-0.975 -0.019,-0.359 -0.045,-0.716 -0.075,-1.072 -0.023,-0.269 -0.047,-0.538 -0.076,-0.805 -0.026,-0.239 -0.053,-0.476 -0.084,-0.713 -0.046,-0.351 -0.098,-0.7 -0.156,-1.047 -0.034,-0.206 -0.068,-0.412 -0.106,-0.617 -0.077,-0.413 -0.163,-0.823 -0.258,-1.23 -0.041,-0.176 -0.086,-0.35 -0.13,-0.525 -0.091,-0.357 -0.189,-0.71 -0.295,-1.061 -0.042,-0.139 -0.081,-0.279 -0.125,-0.417 -0.151,-0.472 -0.316,-0.939 -0.496,-1.4 -0.044,-0.112 -0.093,-0.222 -0.138,-0.333 -0.152,-0.371 -0.313,-0.739 -0.485,-1.102 -0.062,-0.131 -0.124,-0.263 -0.189,-0.393 -0.227,-0.457 -0.466,-0.909 -0.727,-1.352 -9.377,-15.857 -31.256,-26.276 -31.256,-26.276 -11.982,-7.814 -56.262,-53.136 -79.183,-26.568 -0.475,0.55 -0.92,1.098 -1.352,1.644 -0.109,0.138 -0.217,0.276 -0.323,0.414 -0.405,0.524 -0.798,1.047 -1.165,1.567 -0.014,0.02 -0.03,0.041 -0.045,0.061 -0.381,0.541 -0.735,1.079 -1.077,1.615 -0.084,0.132 -0.167,0.264 -0.248,0.396 -0.313,0.505 -0.614,1.008 -0.894,1.508 -0.018,0.032 -0.038,0.064 -0.055,0.095 -0.296,0.532 -0.567,1.061 -0.826,1.588 -0.061,0.123 -0.119,0.246 -0.178,0.369 -0.235,0.492 -0.458,0.983 -0.662,1.47 -0.015,0.035 -0.031,0.07 -0.046,0.104 -0.218,0.525 -0.414,1.046 -0.598,1.564 -0.039,0.109 -0.076,0.219 -0.113,0.328 -0.166,0.485 -0.32,0.968 -0.457,1.447 -0.009,0.033 -0.02,0.066 -0.03,0.098 -0.146,0.518 -0.274,1.032 -0.388,1.543 -0.021,0.092 -0.04,0.184 -0.059,0.276 -0.103,0.482 -0.195,0.961 -0.271,1.436 -0.004,0.026 -0.01,0.053 -0.014,0.079 -0.08,0.511 -0.143,1.016 -0.194,1.519 -0.007,0.073 -0.013,0.146 -0.02,0.219 -0.045,0.481 -0.079,0.959 -0.098,1.431 -0.001,0.017 -0.002,0.033 -0.003,0.05 -0.019,0.503 -0.024,1.001 -0.016,1.495 10e-4,0.052 0.003,0.103 0.004,0.155 0.01,0.48 0.031,0.957 0.065,1.428 0,0.006 10e-4,0.013 10e-4,0.019 0.036,0.493 0.086,0.981 0.148,1.464 0.004,0.031 0.008,0.061 0.012,0.092 0.058,0.445 0.127,0.885 0.204,1.321 0.005,0.027 0.011,0.053 0.016,0.081 0.967,-5.288 3.57,-10.992 8.683,-16.919 22.922,-26.568 67.202,18.754 79.184,26.568 z"
   clip-path="url(#SVGID_00000138560752529099851370000014532664930134709635_)"
   id="path25" />
			<g
   clip-path="url(#SVGID_00000138560752529099851370000014532664930134709635_)"
   id="g36">
				<defs
   id="defs25"><path
     id="SVGID_00000072260162903245995240000010796334879319772588_"
     d="m 385.3,128.389 c -11.982,-7.814 -56.262,-53.136 -79.183,-26.568 -22.921,26.568 4.49,48.689 4.49,48.689 0,0 -3.558,28.452 2.488,35.985 6.046,7.533 31.051,-8.616 37.302,5.97 6.251,14.586 -14.871,22.4 -9.259,38.029 5.612,15.629 22.823,11.384 25.678,26.009 2.855,14.625 7.023,54.715 44.531,39.098 37.508,-15.617 18.233,-34.892 15.628,-43.227 -2.605,-8.335 1.042,-10.94 0,-21.359 -1.042,-10.419 -13.024,-14.503 -13.544,-24.703 -0.521,-10.2 12.503,-35.79 3.126,-51.647 C 407.18,138.808 385.3,128.389 385.3,128.389 Z" /></defs>
				<clipPath
   id="SVGID_00000128465860201500865530000000461509179300435373_">
					<use
   xlink:href="#SVGID_00000072260162903245995240000010796334879319772588_"
   style="overflow:visible"
   id="use25" />
				</clipPath>
				<g
   clip-path="url(#SVGID_00000128465860201500865530000000461509179300435373_)"
   id="g27">
					<g
   id="g26">
						<path
   style="fill:#bcbec0"
   d="m 317.027,93.184 c -4.562,7.588 -9.497,16.191 -7.749,25.395 1.296,6.822 5.846,12.444 9.95,17.818 4.405,5.768 9.293,12.162 9,19.808 -0.171,4.452 -2.134,8.842 -1.25,13.327 0.697,3.536 3.244,6.252 6.282,8.029 4.128,2.415 8.955,3.041 13.407,4.619 4.273,1.514 8.385,3.947 11.332,7.441 6.822,8.087 2.325,17.541 0.719,26.584 -1.294,7.287 0.677,13.316 6.082,18.335 5.241,4.866 12.269,8.318 15.871,14.738 2.825,5.036 2.618,10.927 2.582,16.517 -0.031,4.892 0.266,9.648 1.72,14.347 2.664,8.606 8.287,16.069 15.762,21.07 0.536,0.359 1.038,-0.507 0.505,-0.863 -7.365,-4.927 -12.865,-12.336 -15.411,-20.834 -1.347,-4.496 -1.607,-9.052 -1.576,-13.719 0.029,-4.31 0.169,-8.726 -1.016,-12.916 -4.025,-14.229 -25.15,-16.973 -23.93,-33.519 0.59,-8.006 5.164,-15.875 2.906,-23.996 -1.905,-6.85 -8.223,-11.487 -14.59,-13.896 -4.679,-1.771 -9.856,-2.307 -14.177,-4.967 -5.176,-3.186 -6.237,-8.002 -5.205,-13.717 0.667,-3.697 1.373,-7.249 0.626,-10.991 -0.608,-3.044 -1.957,-5.899 -3.56,-8.537 -4.021,-6.617 -9.776,-12.128 -13.12,-19.168 -5.112,-10.763 0.071,-21.028 5.704,-30.399 0.332,-0.554 -0.532,-1.057 -0.864,-0.506 z"
   id="path26" />
					</g>
				</g>
				<g
   clip-path="url(#SVGID_00000128465860201500865530000000461509179300435373_)"
   id="g29">
					<g
   id="g28">
						<path
   style="fill:#bcbec0"
   d="m 332.969,87.591 c -3.757,7.217 -6.974,15.224 -5.191,23.482 1.516,7.018 5.964,12.91 9.626,18.926 2.01,3.301 3.882,6.733 4.96,10.464 1.23,4.259 1.182,8.739 2.142,13.05 1.605,7.201 6.892,11.46 12.21,16.07 2.887,2.503 5.621,5.164 7.454,8.561 2.01,3.725 2.97,7.898 3.996,11.97 0.934,3.708 1.947,7.382 3.638,10.827 1.874,3.817 4.344,7.296 6.682,10.834 2.382,3.605 4.684,7.322 6.033,11.454 1.45,4.442 1.796,9.13 2.015,13.769 0.402,8.507 0.815,16.613 5.053,24.217 2.303,4.133 5.145,7.951 7.256,12.194 1.992,4.004 3.293,8.304 4.531,12.587 2.313,8.004 4.491,16.232 10.146,22.613 0.428,0.483 1.133,-0.227 0.707,-0.707 -5.351,-6.039 -7.493,-13.84 -9.673,-21.424 -2.115,-7.36 -4.751,-13.929 -8.85,-20.421 -2.277,-3.607 -4.608,-7.239 -5.957,-11.317 -1.466,-4.429 -1.814,-9.115 -2.036,-13.746 -0.382,-7.974 -0.634,-15.804 -4.35,-23.059 -3.717,-7.257 -9.433,-13.368 -12.224,-21.115 -2.57,-7.133 -3.051,-15.163 -7.543,-21.506 -3.929,-5.549 -10.116,-8.879 -14.359,-14.134 -5.451,-6.75 -3.752,-15.691 -6.721,-23.4 -2.859,-7.424 -8.199,-13.507 -11.57,-20.666 -1.95,-4.142 -3.012,-8.543 -2.599,-13.14 0.507,-5.637 2.905,-10.92 5.487,-15.879 0.297,-0.569 -0.565,-1.075 -0.863,-0.504 z"
   id="path27" />
					</g>
				</g>
				<g
   clip-path="url(#SVGID_00000128465860201500865530000000461509179300435373_)"
   id="g31">
					<g
   id="g30">
						<path
   style="fill:#bcbec0"
   d="m 352.68,87.713 c -2.405,7.658 -4.866,15.818 -3.695,23.929 1.215,8.417 7.261,13.805 11.651,20.628 4.993,7.76 6.862,16.119 8.417,25.065 1.333,7.668 3.961,13.977 8.99,19.936 4.648,5.507 10.255,10.375 13.695,16.802 4.157,7.766 3.3,16.608 3.1,25.092 -0.185,7.849 0.595,15.335 5.194,21.936 4.745,6.81 10.902,12.214 14.204,20.011 1.984,4.686 2.988,9.629 3.257,14.701 0.253,4.765 0.061,9.57 0.921,14.284 1.251,6.856 5.608,13.88 13.022,14.875 0.636,0.085 0.629,-0.915 0,-1 -9.03,-1.212 -12.114,-11.245 -12.616,-18.991 -0.523,-8.071 -0.264,-15.768 -3.319,-23.426 -2.775,-6.955 -7.551,-12.128 -12.211,-17.83 -2.81,-3.438 -5.205,-7.111 -6.36,-11.445 -1.064,-3.994 -1.18,-8.157 -1.108,-12.266 0.132,-7.536 1.024,-15.395 -1.541,-22.654 -2.153,-6.092 -6.555,-10.94 -10.864,-15.606 -5.146,-5.572 -10.048,-11.121 -12.101,-18.605 -2.165,-7.891 -2.481,-16.006 -5.719,-23.629 -1.76,-4.145 -4.068,-7.994 -6.799,-11.569 -2.718,-3.558 -5.76,-6.997 -7.443,-11.206 -3.722,-9.308 -0.562,-19.679 2.291,-28.765 0.191,-0.617 -0.774,-0.88 -0.966,-0.267 z"
   id="path29" />
					</g>
				</g>
				<g
   clip-path="url(#SVGID_00000128465860201500865530000000461509179300435373_)"
   id="g33">
					<g
   id="g32">
						<path
   style="fill:#bcbec0"
   d="m 375.759,109.256 c -2.592,13.61 1.324,27.19 10.193,37.723 4.868,5.782 9.732,11.034 11.943,18.445 1.907,6.392 2.314,13.096 3.124,19.682 0.714,5.804 1.695,11.712 4.387,16.97 3.299,6.443 9.757,9.751 13.774,15.55 8.076,11.658 2.276,27.407 6.907,40.219 2.663,7.367 7.811,13.507 13.138,19.112 5.641,5.935 11.773,11.512 19.327,14.882 0.583,0.26 1.092,-0.601 0.505,-0.863 -6.822,-3.043 -12.482,-7.904 -17.66,-13.206 -5.046,-5.166 -10.026,-10.703 -13.134,-17.293 -5.891,-12.493 -0.838,-26.791 -6.047,-39.337 -2.597,-6.255 -8.141,-9.525 -12.457,-14.41 -4.293,-4.859 -6.127,-11.164 -7.152,-17.437 -1.999,-12.238 -1.584,-25.005 -9.46,-35.341 -5.022,-6.592 -10.889,-12.089 -14.05,-19.942 -3.122,-7.756 -3.936,-16.279 -2.373,-24.486 0.119,-0.631 -0.845,-0.901 -0.965,-0.268 z"
   id="path31" />
					</g>
				</g>
				<g
   clip-path="url(#SVGID_00000128465860201500865530000000461509179300435373_)"
   id="g35">
					<g
   id="g34">
						<path
   style="fill:#bcbec0"
   d="m 402.905,125.738 c 1.448,22.382 5.368,47.746 25.284,61.469 0.531,0.366 1.032,-0.5 0.505,-0.863 -19.591,-13.499 -23.367,-38.626 -24.789,-60.606 -0.041,-0.639 -1.041,-0.644 -1,0 z"
   id="path33" />
					</g>
				</g>
			</g>
			<g
   clip-path="url(#SVGID_00000138560752529099851370000014532664930134709635_)"
   id="g38">
				<path
   style="fill:#301c13"
   d="m 390.706,126.972 c -0.659,-1.648 -11.537,-8.9 -13.845,-7.911 -2.307,0.989 -31.975,67.435 -31.975,67.435 l 14.264,5.548 c 0,0 32.215,-63.424 31.556,-65.072 z"
   id="path36" />
				<circle
   style="fill:#06181d"
   cx="346.22601"
   cy="204.968"
   r="25.525999"
   id="circle36" />
				<circle
   style="fill:#e9d788"
   cx="346.22601"
   cy="204.968"
   r="21.295"
   id="circle37" />
				<circle
   style="fill:#ea8132"
   cx="346.22601"
   cy="204.968"
   r="12.924"
   id="circle38" />
			</g>
			<g
   clip-path="url(#SVGID_00000138560752529099851370000014532664930134709635_)"
   id="g52">
				<g
   id="g39">
					<path
   style="fill:#ffffff"
   d="m 233.025,378.098 c 6.253,0.047 12.351,0.852 16.03,1.447 l -55.262,-70.346 c 0,0 -39.732,-12.661 -74.672,12.359 l 56.389,74.018 c 0.001,0 47.544,-17.553 57.515,-17.478 z"
   id="path38" />
					<path
   style="fill:#adcfff"
   d="m 173.442,402.676 77.55,-20.666 -1.937,-2.465 c -3.679,-0.595 -9.777,-1.4 -16.03,-1.447 -9.97,-0.074 -57.514,17.478 -57.514,17.478 l -56.389,-74.018 -2.357,5.634 z"
   id="path39" />
				</g>
				<g
   id="g51">
					<path
   style="fill:none;stroke:#06181d;stroke-linecap:round;stroke-linejoin:round;stroke-miterlimit:10"
   d="m 134.254,325.103 c 0,0 20.507,-16.582 60.597,-9.56"
   id="path40" />
					<path
   style="fill:none;stroke:#06181d;stroke-linecap:round;stroke-linejoin:round;stroke-miterlimit:10"
   d="m 138.382,330.381 c 0,0 21.314,-16.519 60.087,-9.751"
   id="path41" />
					<path
   style="fill:none;stroke:#06181d;stroke-linecap:round;stroke-linejoin:round;stroke-miterlimit:10"
   d="m 142.51,335.659 c 0,0 22.121,-16.455 59.578,-9.942"
   id="path42" />
					<path
   style="fill:none;stroke:#06181d;stroke-linecap:round;stroke-linejoin:round;stroke-miterlimit:10"
   d="m 146.639,340.937 c 0,0 22.928,-16.392 59.068,-10.133"
   id="path43" />
					<path
   style="fill:none;stroke:#06181d;stroke-linecap:round;stroke-linejoin:round;stroke-miterlimit:10"
   d="m 150.767,346.216 c 0,0 23.736,-16.329 58.558,-10.324"
   id="path44" />
					<path
   style="fill:none;stroke:#06181d;stroke-linecap:round;stroke-linejoin:round;stroke-miterlimit:10"
   d="m 154.895,351.494 c 0,0 24.543,-16.266 58.049,-10.515"
   id="path45" />
					<path
   style="fill:none;stroke:#06181d;stroke-linecap:round;stroke-linejoin:round;stroke-miterlimit:10"
   d="m 159.024,356.772 c 0,0 25.35,-16.203 57.539,-10.706"
   id="path46" />
					<path
   style="fill:none;stroke:#06181d;stroke-linecap:round;stroke-linejoin:round;stroke-miterlimit:10"
   d="m 163.152,362.05 c 0,0 26.157,-16.14 57.029,-10.897"
   id="path47" />
					<path
   style="fill:none;stroke:#06181d;stroke-linecap:round;stroke-linejoin:round;stroke-miterlimit:10"
   d="m 167.28,367.329 c 0,0 26.965,-16.077 56.52,-11.088"
   id="path48" />
					<path
   style="fill:none;stroke:#06181d;stroke-linecap:round;stroke-linejoin:round;stroke-miterlimit:10"
   d="m 171.409,372.607 c 0,0 27.772,-16.013 56.01,-11.279"
   id="path49" />
					<path
   style="fill:none;stroke:#06181d;stroke-linecap:round;stroke-linejoin:round;stroke-miterlimit:10"
   d="m 175.537,377.885 c 0,0 28.579,-15.95 55.5,-11.47"
   id="path50" />
					<path
   style="fill:none;stroke:#06181d;stroke-linecap:round;stroke-linejoin:round;stroke-miterlimit:10"
   d="m 179.666,383.163 c 0,0 29.386,-15.887 54.991,-11.661"
   id="path51" />
				</g>
			</g>
			<g
   clip-path="url(#SVGID_00000138560752529099851370000014532664930134709635_)"
   id="g72">
				<g
   id="g53">
					<path
   style="fill:#ffffff"
   d="m 255.922,369.24 c -3.236,3.792 -5.48,7.891 -6.704,10.421 l -55.293,-70.334 c 0,0 5.73,-30.606 54.14,-38.486 l 59.105,72.946 c -0.001,0 -46.088,19.406 -51.248,25.453 z"
   id="path52" />
					<path
   style="fill:#adcfff"
   d="m 316.775,346.279 -65.62,35.847 -1.938,-2.465 c 1.224,-2.53 3.467,-6.628 6.704,-10.421 5.16,-6.047 51.247,-25.453 51.247,-25.453 l -59.105,-72.946 8,1.546 z"
   id="path53" />
				</g>
				<g
   id="g65">
					<path
   style="fill:none;stroke:#06181d;stroke-linecap:round;stroke-linejoin:round;stroke-miterlimit:10"
   d="m 244.35,281.825 c 0,0 -30.688,3.626 -43.372,31.479"
   id="path54" />
					<path
   style="fill:none;stroke:#06181d;stroke-linecap:round;stroke-linejoin:round;stroke-miterlimit:10"
   d="m 248.508,287.091 c 0,0 -31.037,4.146 -43.332,31.071"
   id="path55" />
					<path
   style="fill:none;stroke:#06181d;stroke-linecap:round;stroke-linejoin:round;stroke-miterlimit:10"
   d="m 252.666,292.358 c 0,0 -31.386,4.666 -43.293,30.664"
   id="path56" />
					<path
   style="fill:none;stroke:#06181d;stroke-linecap:round;stroke-linejoin:round;stroke-miterlimit:10"
   d="m 256.825,297.624 c 0,0 -31.736,5.185 -43.254,30.256"
   id="path57" />
					<path
   style="fill:none;stroke:#06181d;stroke-linecap:round;stroke-linejoin:round;stroke-miterlimit:10"
   d="m 260.983,302.89 c 0,0 -32.085,5.705 -43.215,29.849"
   id="path58" />
					<path
   style="fill:none;stroke:#06181d;stroke-linecap:round;stroke-linejoin:round;stroke-miterlimit:10"
   d="m 265.141,308.157 c 0,0 -32.434,6.224 -43.176,29.441"
   id="path59" />
					<path
   style="fill:none;stroke:#06181d;stroke-linecap:round;stroke-linejoin:round;stroke-miterlimit:10"
   d="m 269.299,313.423 c 0,0 -32.783,6.744 -43.136,29.033"
   id="path60" />
					<path
   style="fill:none;stroke:#06181d;stroke-linecap:round;stroke-linejoin:round;stroke-miterlimit:10"
   d="m 273.458,318.69 c 0,0 -33.133,7.264 -43.097,28.626"
   id="path61" />
					<path
   style="fill:none;stroke:#06181d;stroke-linecap:round;stroke-linejoin:round;stroke-miterlimit:10"
   d="m 277.616,323.956 c 0,0 -33.482,7.783 -43.058,28.218"
   id="path62" />
					<path
   style="fill:none;stroke:#06181d;stroke-linecap:round;stroke-linejoin:round;stroke-miterlimit:10"
   d="m 281.774,329.222 c 0,0 -33.831,8.303 -43.019,27.81"
   id="path63" />
					<path
   style="fill:none;stroke:#06181d;stroke-linecap:round;stroke-linejoin:round;stroke-miterlimit:10"
   d="m 285.933,334.489 c 0,0 -34.18,8.823 -42.979,27.403"
   id="path64" />
					<path
   style="fill:none;stroke:#06181d;stroke-linecap:round;stroke-linejoin:round;stroke-miterlimit:10"
   d="m 290.091,339.755 c 0,0 -34.53,9.342 -42.94,26.995"
   id="path65" />
				</g>
				<path
   style="fill:#cf9e76"
   d="m 300.01,289.942 c 0,0 -36.549,-24.758 -40.915,-23.17 -4.365,1.587 -19.049,13.285 -19.446,16.564 -0.397,3.279 3.586,10.039 3.586,10.039 0,0 -2.594,8.122 -1.8,9.511 0.794,1.389 3.77,3.175 5.556,2.183 1.786,-0.992 7.817,-4.434 7.817,-4.434 0,0 15.613,4.81 17.49,4.721 1.878,-0.089 4.792,-1.658 4.792,-1.658 0,0 2.245,1.54 5.023,2.844 2.778,1.304 39.044,13.433 39.044,13.433 v -22.411 z"
   id="path66" />
				<g
   id="g69">
					<defs
   id="defs66"><path
     id="SVGID_00000013871580307172695580000003879146097224242311_"
     d="m 300.01,289.942 c 0,0 -36.549,-24.758 -40.915,-23.17 -4.365,1.587 -19.049,13.285 -19.446,16.564 -0.397,3.279 3.586,10.039 3.586,10.039 0,0 -2.594,8.122 -1.8,9.511 0.794,1.389 3.77,3.175 5.556,2.183 1.786,-0.992 7.817,-4.434 7.817,-4.434 0,0 15.613,4.81 17.49,4.721 1.878,-0.089 4.792,-1.658 4.792,-1.658 0,0 2.245,1.54 5.023,2.844 2.778,1.304 39.044,13.433 39.044,13.433 l -1.464,-28.004 z" /></defs>
					<clipPath
   id="SVGID_00000096762060471132130760000016109839286515403402_">
						<use
   xlink:href="#SVGID_00000013871580307172695580000003879146097224242311_"
   style="overflow:visible"
   id="use66" />
					</clipPath>
					<g
   clip-path="url(#SVGID_00000096762060471132130760000016109839286515403402_)"
   id="g68">
						<g
   id="g67">
							<path
   style="fill:#301c13"
   d="m 241.449,296.692 c 3.81,-6.968 9.131,-12.858 15.693,-17.334 0.529,-0.361 0.029,-1.227 -0.505,-0.863 -6.704,4.573 -12.158,10.571 -16.051,17.692 -0.309,0.565 0.554,1.07 0.863,0.505 z"
   id="path67" />
						</g>
					</g>
				</g>
				<path
   style="fill:#df400a"
   d="m 259.685,248.08 c -0.559,-1.198 -4.633,-1.278 -5.511,-0.399 -0.879,0.879 -7.531,36.836 -7.531,36.836 l 1.422,1.301 6.216,-5.531 c -0.001,-10e-4 5.963,-31.009 5.404,-32.207 z"
   id="path69" />
				<g
   id="g71">
					<g
   id="g70">
						<path
   style="fill:#301c13"
   d="m 245.506,283.6 c 0.604,1.002 1.207,2.004 1.811,3.006 0.332,0.551 1.197,0.048 0.863,-0.505 -0.604,-1.002 -1.207,-2.004 -1.811,-3.006 -0.331,-0.55 -1.196,-0.048 -0.863,0.505 z"
   id="path70" />
					</g>
				</g>
			</g>
			<path
   style="fill:#cf9e76"
   d="m 276.003,362.681 c 0,0 -8.993,37.249 -16.345,37.249 -7.352,0 -72.919,-30.582 -73.897,-30.138 -0.978,0.444 -2.774,-14.754 -4.216,-17.927 -1.442,-3.173 -9.228,-4.614 -11.535,-6.344 -2.307,-1.73 -6.632,-9.805 -8.363,-8.651 -1.73,1.154 -3.46,6.344 -3.172,7.786 0.288,1.442 6.632,10.67 6.632,10.67 0,0 -15.828,1.227 -25.359,1.362 -2.45,0.035 -3.675,2.974 -1.969,4.733 0.537,0.554 1.018,1.045 1.375,1.403 1.73,1.73 4.614,2.595 4.614,2.595 0,0 -2.019,4.326 -0.865,6.344 1.154,2.019 2.307,3.479 2.307,3.479 0,0 -1.73,3.154 -0.288,5.172 1.442,2.018 3.172,3.172 3.172,3.172 0,0 -0.581,2.307 2.161,4.037 2.742,1.73 26.676,2.884 28.695,4.037 2.019,1.153 76.417,49.494 93.143,55.747 16.725,6.252 47.601,-73.039 47.601,-73.039 z"
   clip-path="url(#SVGID_00000138560752529099851370000014532664930134709635_)"
   id="path72" />
			<g
   clip-path="url(#SVGID_00000138560752529099851370000014532664930134709635_)"
   id="g73">
				<path
   style="fill:#bcbec0"
   d="m 276.003,362.681 c 0,0 -1.876,7.76 -4.611,16.195 8.071,5.475 16.622,10.197 25.809,13.41 4.345,1.519 8.85,2.681 13.414,3.411 5.446,-12.002 9.078,-21.328 9.078,-21.328 z"
   id="path73" />
			</g>
			<path
   style="fill:#df400a"
   d="m 330.893,294.586 c -5.558,-9.369 -17.888,-12.458 -26.05,-13.471 -7.771,4.617 -14.27,9.523 -18.049,14.485 -16.522,21.695 -18.466,69.884 -18.466,69.884 0,0 12.773,11.015 35.584,9.638 12.216,-0.837 30.703,-1.148 30.703,-1.148 0,0 4.961,-64.751 -3.722,-79.388 z"
   clip-path="url(#SVGID_00000138560752529099851370000014532664930134709635_)"
   id="path74" />
			<g
   clip-path="url(#SVGID_00000138560752529099851370000014532664930134709635_)"
   id="g78">
				<g
   id="g76">
					<g
   id="g75">
						<path
   style="fill:#efe9b4"
   d="m 90.631,346.052 c 3.554,-1.865 7.431,-4.271 7.881,-8.666 0.417,-4.069 -2.601,-6.488 -6.314,-7.141 -4.943,-0.869 -10.078,-0.768 -15.075,-0.818 -2.714,-0.027 -5.621,-0.153 -7.864,-1.866 -2.532,-1.934 -2.487,-5.005 -0.738,-7.475 3.028,-4.277 9.104,-4.661 13.762,-5.909 4.371,-1.171 8.662,-2.826 12.606,-5.057 5.733,-3.243 16.44,-10.765 10.641,-18.328 -5.496,-7.167 -17.161,-3.671 -23.632,0.146 -1.662,0.98 -0.154,3.574 1.514,2.59 4.824,-2.845 17.604,-7.435 20.487,0.366 1.599,4.327 -4.043,8.336 -7.045,10.446 -3.496,2.457 -7.377,4.342 -11.411,5.734 -6.77,2.336 -16.469,2.349 -20.186,9.59 -1.422,2.771 -1.447,6.074 0.482,8.606 2.264,2.971 5.98,3.912 9.539,4.113 5.365,0.302 10.79,-0.139 16.123,0.754 2.722,0.456 4.941,1.996 3.877,5.075 -0.915,2.649 -3.855,4.039 -6.16,5.248 -1.712,0.899 -0.197,3.489 1.513,2.592 z"
   id="path75" />
					</g>
				</g>
				<ellipse
   style="fill:#301c13"
   cx="91.598999"
   cy="360.89301"
   rx="19.525999"
   ry="22.489"
   id="ellipse76" />
				<g
   id="g77">
					<path
   style="fill:#301c13"
   d="m 72.73,355.105 c -0.169,0.733 -0.308,1.481 -0.412,2.242 6.747,-3.536 14.292,-5.262 21.918,-5.052 3.984,0.11 7.944,0.743 11.76,1.892 1.576,0.475 3.125,1.039 4.636,1.691 -0.145,-0.731 -0.32,-1.449 -0.525,-2.151 -0.084,-0.033 -0.166,-0.07 -0.25,-0.103 -4.192,-1.643 -8.63,-2.621 -13.114,-2.987 -1.373,-0.112 -2.748,-0.155 -4.121,-0.145 0.043,-4.027 -0.055,-8.049 -0.286,-12.067 -0.245,-0.01 -0.489,-0.021 -0.736,-0.021 -0.355,0 -0.708,0.012 -1.059,0.034 0.232,4.03 0.329,8.064 0.285,12.102 -6.266,0.286 -12.441,1.828 -18.096,4.565 z"
   id="path76" />
				</g>
			</g>
			<path
   style="fill:#ea8132"
   d="m 344.886,305.995 c -8.007,7.221 -17.2,100.282 -11.585,103.952 5.615,3.67 109.307,-24.612 112.87,-30.286 3.563,-5.674 13.323,-86.367 6.661,-91.492 -6.66,-5.125 -98.329,9.153 -107.946,17.826 z"
   clip-path="url(#SVGID_00000138560752529099851370000014532664930134709635_)"
   id="path78" />
			<path
   style="fill:#ffa25c"
   d="m 357.598,316.789 c -6.84,6.169 -14.693,85.665 -9.896,88.8 4.797,3.135 93.374,-21.024 96.418,-25.872 3.044,-4.847 11.381,-73.778 5.69,-78.156 -5.69,-4.377 -83.997,7.82 -92.212,15.228 z"
   clip-path="url(#SVGID_00000138560752529099851370000014532664930134709635_)"
   id="path79" />
			<path
   style="fill:#b86527"
   d="m 419.503,355.114 c -2.202,-10.459 -10.274,-10.824 -18.967,-2.467 -8.693,8.357 -15.526,96.622 -15.526,96.622 h 30.09 c -0.001,-0.001 6.604,-83.696 4.403,-94.155 z"
   clip-path="url(#SVGID_00000138560752529099851370000014532664930134709635_)"
   id="path80" />
			<polygon
   style="fill:#adcfff"
   points="156.699,242.483 155.651,137.166 83.427,149.368 84.445,263.854 "
   clip-path="url(#SVGID_00000138560752529099851370000014532664930134709635_)"
   id="polygon80" />
			<g
   clip-path="url(#SVGID_00000138560752529099851370000014532664930134709635_)"
   id="g86">
				<line
   style="fill:none;stroke:#301c13;stroke-miterlimit:10"
   x1="94.622002"
   y1="159.54401"
   x2="146.522"
   y2="149.877"
   id="line80" />
				<line
   style="fill:none;stroke:#301c13;stroke-miterlimit:10"
   x1="94.745003"
   y1="173.715"
   x2="146.60699"
   y2="163.19099"
   id="line81" />
				<line
   style="fill:none;stroke:#301c13;stroke-miterlimit:10"
   x1="94.869003"
   y1="187.88499"
   x2="146.692"
   y2="176.505"
   id="line82" />
				<line
   style="fill:none;stroke:#301c13;stroke-miterlimit:10"
   x1="94.991997"
   y1="202.05499"
   x2="146.776"
   y2="189.82001"
   id="line83" />
				<line
   style="fill:none;stroke:#301c13;stroke-miterlimit:10"
   x1="95.115997"
   y1="216.22501"
   x2="146.86099"
   y2="203.134"
   id="line84" />
				<line
   style="fill:none;stroke:#301c13;stroke-miterlimit:10"
   x1="95.239998"
   y1="230.395"
   x2="146.946"
   y2="216.448"
   id="line85" />
				<line
   style="fill:none;stroke:#301c13;stroke-miterlimit:10"
   x1="95.362999"
   y1="244.565"
   x2="147.03101"
   y2="229.763"
   id="line86" />
			</g>
			<g
   clip-path="url(#SVGID_00000138560752529099851370000014532664930134709635_)"
   id="g87">
				<defs
   id="defs86"><polygon
     id="SVGID_00000054224982529860302420000011520924328670430088_"
     points="226.408,126.979 164.84,137.156 164.84,195.162 226.661,180.486 " /></defs>
				<clipPath
   id="SVGID_00000031182315334909300900000004545123109859922364_">
					<use
   xlink:href="#SVGID_00000054224982529860302420000011520924328670430088_"
   style="overflow:visible"
   id="use86" />
				</clipPath>
				<polygon
   style="fill:#ffa25c"
   points="226.408,126.979 164.84,137.156 164.84,195.162 226.661,180.486 "
   clip-path="url(#SVGID_00000031182315334909300900000004545123109859922364_)"
   id="polygon86" />
				
					<ellipse
   style="fill:#efe9b4"
   cx="196.3"
   cy="153.961"
   rx="10.53"
   ry="13.727"
   clip-path="url(#SVGID_00000031182315334909300900000004545123109859922364_)"
   id="ellipse86" />
				<path
   style="fill:#efe9b4"
   d="m 223.754,191.005 c 0,0 -4.137,-14.291 -8.274,-16.924 -4.137,-2.633 -25.197,0.752 -34.599,7.898 -9.402,7.146 -5.641,16.171 -6.393,17.676 z"
   clip-path="url(#SVGID_00000031182315334909300900000004545123109859922364_)"
   id="path86" />
			</g>
		</g>
		<g
   id="g93">
			<path
   style="fill:#fa480b"
   d="m 207.329,206.371 c 0,-4.933 0,-9.866 0,-14.799 l -23.017,5.601 c 0,5.197 0,10.394 0,15.591 7.678,-2.111 15.35,-4.243 23.017,-6.393 z"
   id="path88" />
			<path
   style="fill:#df400a"
   d="m 184.312,197.173 -19.472,4.738 v 16.161 c 6.494,-1.756 12.985,-3.524 19.472,-5.308 0,-5.197 0,-10.394 0,-15.591 z"
   id="path89" />
			<path
   style="fill:#c43809"
   d="m 226.661,200.906 v -14.038 l -19.333,4.704 c 0,4.933 0,9.866 0,14.799 6.449,-1.809 12.893,-3.63 19.333,-5.465 z"
   id="path90" />
			<path
   style="fill:#fa480b"
   d="m 164.84,218.072 v 21.071 l 19.472,-5.094 c 0,-7.095 0,-14.19 0,-21.285 -6.487,1.784 -12.978,3.552 -19.472,5.308 z"
   id="path91" />
			<path
   style="fill:#df400a"
   d="m 226.661,200.906 c -6.44,1.836 -12.885,3.657 -19.333,5.465 0,7.219 0,14.439 0,21.658 l 19.333,-5.057 z"
   id="path92" />
			<path
   style="fill:#c43809"
   d="m 184.312,212.764 c 0,7.095 0,14.19 0,21.285 l 23.017,-6.021 c 0,-7.219 0,-14.439 0,-21.658 -7.667,2.151 -15.339,4.283 -23.017,6.394 z"
   id="path93" />
		</g>
	</g>
</g>
</svg>
